# xmcd CD database file
#
# Track frame offsets:
#	170
#	14392
#	35705
#	58558
#	79918
#	91755
#	114114
#	141956
#	175156
#	189445
#	206511
#	224954
#	271111
#	290877
#
# Disc length: 4320 seconds
#
# Revision: 0
# Processed by: cddbd v1.5.1PL2 Copyright (c) Steve Scherf et al.
# Submitted via: CDex 1.51
#
DISCID=cf10de0e
DTITLE=Irene Schweitzer - Portrait
DYEAR=2005
DGENRE=Jazz
TTITLE0=Sisterhood of Spit
TTITLE1=Bleu Foncé
TTITLE2=Angel
TTITLE3=Contours
TTITLE4=The Very Last Tango
TTITLE5=Waltz for Lois
TTITLE6=So Oder So
TTITLE7=Verspielte Zeiten
TTITLE8=Come Along, Charles
TTITLE9=Hüben ohne Drüben
TTITLE10=Hackensack
TTITLE11=First Meeting
TTITLE12=A Monkish Encore
TTITLE13=Wilisau
EXTD=YEAR: 2005
EXTT0=
EXTT1=
EXTT2=
EXTT3=
EXTT4=
EXTT5=
EXTT6=
EXTT7=
EXTT8=
EXTT9=
EXTT10=
EXTT11=
EXTT12=
EXTT13=
PLAYORDER=
